<?xml version="1.0" encoding="UTF-8"?>
<svg width="1200pt" height="1200pt" version="1.1" viewBox="0 0 1200 1200" xmlns="http://www.w3.org/2000/svg">
 <path d="m599.65 908.26c-170.12 0-308.61-138.49-308.61-307.91 0-169.42 138.49-307.91 308.61-307.91 170.12 0 308.61 138.49 308.61 307.91 0 169.42-138.49 307.91-308.61 307.91zm0-582.07c-151.14 0-274.16 123.02-274.16 274.16 0 151.14 123.02 274.16 274.16 274.16 151.14 0 274.87-123.02 274.87-274.16 0-151.14-123.02-274.16-274.87-274.16z" fill-rule="evenodd"/>
 <path d="m599.65 1081.9c-265.73 0-480.84-216.52-480.84-481.55 0-265.03 215.11-481.55 480.84-481.55 265.03 0 481.55 216.52 481.55 481.55 0 265.03-216.52 481.55-481.55 481.55zm0-929.35c-246.75 0-447.1 201.05-447.1 447.8s201.05 447.8 447.1 447.8c246.75 0 447.1-201.05 447.1-447.8s-200.35-447.8-447.1-447.8z" fill-rule="evenodd"/>
 <path d="m605.98 512.48h-11.246c-9.1406 0-15.465-6.3281-16.871-15.465l-18.277-186.29c-1.4062-9.8438 5.625-17.574 15.465-18.277 9.8438-1.4062 17.574 5.625 18.277 15.465l7.7344 78.031 8.4375-77.328c0.70312-9.8438 9.1406-16.168 18.277-15.465 8.4375 1.4062 16.168 9.8438 15.465 18.98l-18.277 184.89c-2.1094 9.1406-9.8438 15.465-18.98 15.465zm37.258-357.82h-2.1094c-9.8438-0.70312-16.168-9.8438-15.465-18.277l7.0312-71c0.70312-9.1406-2.8125-16.168-7.0312-19.684-7.0312-7.0312-15.465-11.949-25.309-11.949s-19.684 4.9219-25.309 11.949c-4.2188 3.5156-7.7344 10.543-7.0312 18.277l7.0312 71c0.70312 9.8438-5.625 17.574-15.465 18.98-9.8438 0.70312-17.574-5.625-18.98-15.465l-6.3281-71.703c-2.1094-16.168 3.5156-31.633 15.465-44.289 12.652-14.762 32.336-22.496 50.613-22.496 19.684 0 37.961 8.4375 50.613 22.496 11.949 12.652 16.871 28.824 15.465 45.695l-6.3281 71c-1.4062 9.1406-7.7344 15.465-16.871 15.465z" fill-rule="evenodd"/>
 <path d="m678.38 549.04h-2.1094c-4.9219 0-8.4375-3.5156-11.246-6.3281-2.1094-2.8125-4.2188-4.9219-7.0312-7.0312-4.2188-2.8125-5.625-6.3281-5.625-11.246 0-4.9219 0.70312-9.1406 3.5156-12.652l118.8-144.11c6.3281-7.0312 16.871-9.1406 24.605-2.1094 7.0312 5.625 8.4375 16.168 2.1094 23.902l-50.613 60.457 61.16-50.613c7.0312-5.625 18.277-4.9219 24.605 2.1094 5.625 7.0312 4.9219 17.574-2.1094 24.605l-145.52 118.8c-2.8125 2.8125-6.3281 4.2188-10.543 4.2188zm279.09-227.77c-4.9219 0-9.8438-1.4062-14.059-5.625-5.625-7.7344-4.9219-18.277 2.8125-24.605l55.535-44.289c4.9219-4.2188 8.4375-11.246 9.1406-19.684 0-9.8438-2.8125-18.277-9.8438-25.309s-16.871-10.543-26.012-10.543c-6.3281 0-14.059 1.4062-19.684 8.4375l-44.992 55.535c-5.625 7.7344-16.871 9.1406-24.605 2.8125-7.7344-5.625-8.4375-16.168-2.8125-23.902l44.992-55.535c10.543-13.355 26.012-21.09 43.586-21.793 19.684-0.70312 38.664 7.0312 52.02 20.387 13.355 14.059 20.387 31.633 19.684 50.613-1.4062 17.574-7.7344 33.039-20.387 44.289l-56.238 44.289c-1.4062 3.5156-5.625 4.9219-9.1406 4.9219z" fill-rule="evenodd"/>
 <path d="m1137.4 668.54h-5.625l-71-7.0312c-9.8438-0.70312-16.871-9.1406-16.168-18.277 1.4062-9.8438 9.1406-16.871 18.98-15.465l71 7.0312c9.1406 0.70312 15.465-3.5156 19.684-7.0312 6.3281-5.625 10.543-15.465 10.543-25.309s-4.2188-19.684-10.543-25.309c-4.2188-4.2188-10.543-7.7344-19.684-7.0312l-70.297 7.0312c-9.8438 0.70312-17.574-6.3281-18.277-15.465-1.4062-9.8438 5.625-17.574 15.465-18.98l70.297-7.0312c16.168-1.4062 33.039 4.2188 45.695 16.168 14.762 12.652 22.496 30.93 22.496 50.613 0 19.684-7.7344 37.961-22.496 50.613-11.949 9.8438-26.012 15.465-40.07 15.465zm-247.45-25.309h-2.1094l-184.89-18.277c-9.1406-1.4062-16.168-7.7344-16.168-16.871v-12.652c0-8.4375 7.0312-16.168 16.168-16.168l184.89-18.98c9.8438-0.70312 17.574 5.625 18.98 15.465 0.70313 9.8438-6.3281 17.574-16.168 18.98l-78.734 7.7344 78.734 7.7344c9.8438 0.70312 16.871 9.8438 16.168 18.277-0.70312 7.7344-8.4375 14.762-16.871 14.762z" fill-rule="evenodd"/>
 <path d="m975.04 1044.6h-3.5156c-17.574-0.70312-33.039-8.4375-43.586-21.09l-43.586-53.426c-6.3281-7.0312-4.9219-18.98 1.4062-24.605 7.0312-5.625 18.98-4.9219 24.605 2.1094l43.586 53.426c6.3281 7.7344 14.762 9.1406 18.98 9.1406 9.8438 0 18.277-3.5156 25.309-9.8438 7.0312-7.0312 10.543-16.871 9.8438-26.715 0-4.9219-2.1094-12.652-9.1406-18.277l-54.129-44.992c-7.0312-5.625-9.1406-16.871-2.1094-24.605 5.625-6.3281 16.168-8.4375 23.902-1.4062l54.832 44.289c12.652 11.246 20.387 26.715 21.793 44.289 0.70312 18.277-7.0312 37.961-19.684 51.316-12.652 14.059-30.93 20.387-48.508 20.387zm-188.4-203.16c-4.9219 0-9.8438-2.1094-14.059-6.3281l-116.7-144.82c-5.625-7.0312-4.9219-16.871 0.70312-22.496 1.4062-1.4062 2.1094-2.1094 3.5156-2.8125 1.4062-2.1094 2.8125-3.5156 4.9219-4.9219 2.8125-4.2188 6.3281-6.3281 11.246-6.3281 4.9219-0.70313 9.1406 1.4062 12.652 4.2188l144.11 118.8c7.0312 5.625 9.1406 16.871 2.1094 24.605-5.625 6.3281-16.168 8.4375-23.902 1.4062l-61.863-50.613 50.613 61.863c6.3281 6.3281 4.9219 18.277-2.8125 23.902-2.8125 2.1094-7.0312 3.5156-10.543 3.5156z" fill-rule="evenodd"/>
 <path d="m598.24 1200c-18.98 0-37.961-7.7344-50.613-22.496-11.949-12.652-16.168-29.527-15.465-45.695l7.0312-70.297c0.70313-9.8438 8.4375-16.871 18.277-15.465 9.8438 0.70312 16.871 9.8438 15.465 18.277l-7.0312 70.297c-0.70312 9.1406 3.5156 15.465 7.0312 19.684 6.3281 6.3281 15.465 10.543 25.309 10.543s19.684-4.2188 25.309-11.949c4.2188-3.5156 7.7344-10.543 7.0312-18.98l-7.0312-70.297c-0.70313-9.8438 6.3281-17.574 16.168-18.98 9.1406-0.70312 16.871 6.3281 18.277 16.168l7.0312 69.598c1.4062 16.871-4.2188 32.336-16.168 46.398-12.652 14.059-30.93 23.199-50.613 23.199zm25.309-291.74c-8.4375 0-15.465-6.3281-16.168-15.465l-7.7344-78.734-7.7344 78.734c-1.4062 9.8438-9.1406 16.871-18.98 15.465-9.8438-0.70312-16.168-9.8438-15.465-18.277l18.277-185.59c1.4062-8.4375 7.7344-15.465 16.871-15.465h12.652c8.4375 0 15.465 7.0312 16.871 15.465l18.277 185.59c0.70312 9.8438-5.625 17.574-15.465 18.277h-1.4062z" fill-rule="evenodd"/>
 <path d="m224.25 1043.9c-17.574 0-35.148-7.0312-49.211-19.684-13.355-13.355-20.387-31.633-18.98-51.316 0.70312-17.574 7.7344-33.039 20.387-42.883l55.535-44.992c7.7344-5.625 18.277-4.9219 23.902 2.8125 6.3281 7.7344 4.9219 18.98-2.8125 24.605l-55.535 44.992c-6.3281 5.625-7.7344 13.355-8.4375 18.277 0 9.8438 2.8125 19.684 9.8438 25.309 6.3281 7.0312 16.168 10.543 26.012 9.8438 4.9219 0 12.652-2.1094 18.277-9.1406l44.992-54.129c6.3281-7.0312 16.871-9.1406 24.605-2.1094 7.0312 5.625 8.4375 16.871 2.1094 24.605l-44.992 54.129c-10.543 12.652-25.309 20.387-42.883 21.793-1.4062-2.1094-2.1094-2.1094-2.8125-2.1094zm187-203.87c-4.2188 0-7.7344-0.70312-10.543-3.5156-7.0312-6.3281-9.1406-16.871-2.1094-24.605l49.914-60.457-60.457 48.508c-7.0312 6.3281-18.98 4.9219-24.605-2.8125-5.625-7.0312-4.9219-18.277 2.8125-24.605l144.11-116.7c7.0312-5.625 16.871-4.9219 22.496 0.70312 2.1094 2.1094 2.8125 4.2188 4.9219 4.9219 1.4062 1.4062 2.1094 3.5156 4.2188 4.2188 5.625 5.625 7.0312 16.871 0.70312 22.496l-118.1 144.82c-3.5156 4.9219-8.4375 7.0312-13.355 7.0312z" fill-rule="evenodd"/>
 <path d="m61.863 665.73c-14.059 0-28.121-5.625-39.367-15.465-14.762-12.652-22.496-31.633-22.496-50.613 0-19.684 7.7344-37.961 22.496-50.613 12.652-11.949 28.824-17.574 45.695-16.168l71 7.0312c9.8438 0.70312 16.871 9.8438 15.465 18.277-0.70312 9.8438-8.4375 16.871-18.277 16.168l-71-7.0312c-9.1406-1.4062-16.168 2.8125-19.684 7.0312-7.0312 5.625-10.543 15.465-10.543 25.309s3.5156 18.277 11.246 25.309c4.2188 3.5156 11.246 7.7344 19.684 6.3281l70.297-6.3281c9.8438-1.4062 17.574 5.625 18.277 15.465 1.4062 9.8438-5.625 17.574-15.465 18.277l-70.297 7.0312h-7.0312zm246.75-23.199c-8.4375 0-15.465-7.0312-16.168-16.168-1.4062-9.1406 5.625-16.871 15.465-18.277l80.141-7.7344-78.031-7.7344c-9.8438-0.70313-16.871-9.8438-15.465-18.277 0.70312-9.8438 9.1406-16.871 18.277-16.168l184.18 18.98c8.4375 0.70312 15.465 7.7344 15.465 16.168v12.652c0 9.1406-6.3281 16.871-15.465 16.871l-186.29 18.277c-0.70312 1.4062-0.70312 1.4062-2.1094 1.4062z" fill-rule="evenodd"/>
 <path d="m521.62 547.63c-4.2188 0-7.7344-0.70312-11.246-3.5156l-144.11-118.1c-7.0312-6.3281-8.4375-16.871-2.1094-24.605 6.3281-7.0312 16.871-8.4375 24.605-2.1094l60.457 49.914-49.914-60.457c-5.625-7.0312-4.9219-18.277 2.8125-24.605 7.0312-5.625 18.98-4.9219 24.605 3.5156l118.1 144.11c2.8125 3.5156 4.2188 7.7344 4.2188 12.652 0 4.9219-3.5156 8.4375-6.3281 11.246-2.8125 2.1094-4.9219 4.9219-7.7344 7.0312-4.9219 2.8125-8.4375 4.9219-13.355 4.9219zm-278.38-227.77c-3.5156 0-7.7344-1.4062-10.543-4.2188l-54.129-45.695c-13.355-9.8438-21.09-25.309-21.793-42.883-0.70312-19.684 5.625-37.961 20.387-52.02 14.059-13.355 33.039-21.09 52.723-18.98 17.574 0.70312 32.336 8.4375 42.883 21.09l44.992 55.535c5.625 7.7344 4.9219 18.98-2.8125 24.605s-18.98 4.9219-24.605-2.8125l-44.992-55.535c-4.9219-7.0312-12.652-9.1406-17.574-9.1406-9.8438-0.70313-18.98 2.8125-26.012 9.8438s-10.543 16.871-9.8438 26.012c0 4.9219 2.1094 12.652 8.4375 17.574l54.832 46.398c7.0312 5.625 7.7344 16.168 2.1094 23.902-4.2188 4.2188-9.1406 6.3281-14.059 6.3281z" fill-rule="evenodd"/>
 <path d="m599.65 723.38c-67.488 0-122.32-54.832-122.32-122.32 0-66.785 54.832-121.62 122.32-121.62 66.785 0 121.62 54.832 121.62 121.62 0.70312 66.785-54.832 122.32-121.62 122.32zm0-210.89c-47.805 0-87.875 39.367-87.875 87.875 0 48.508 38.664 87.875 87.875 87.875 48.508 0 87.172-40.07 87.172-87.875 1.4062-47.805-38.664-87.875-87.172-87.875z" fill-rule="evenodd"/>
 <path d="m634.8 245.34h-2.1094c-9.8438-0.70312-21.793-0.70312-33.039-0.70312-9.8438 0-20.387 0-31.633 0.70312-9.8438 1.4062-17.574-5.625-18.98-14.762-1.4062-9.1406 5.625-17.574 14.059-18.98 12.652-2.1094 24.605-2.1094 35.148-2.1094 12.652 0 25.309 0 37.258 2.1094 9.8438 0.70313 15.465 9.8438 14.762 18.98 0 9.1406-7.0312 14.762-15.465 14.762z" fill-rule="evenodd"/>
 <path d="m887.88 378.91c-4.9219 0-8.4375-2.1094-12.652-5.625-7.7344-9.1406-15.465-16.871-23.199-24.605-7.7344-7.7344-15.465-14.762-23.199-21.09-7.0312-6.3281-8.4375-16.871-2.1094-24.605 5.625-7.0312 16.168-7.7344 23.902-2.1094 9.1406 7.0312 17.574 14.762 26.715 24.605 7.7344 7.7344 16.168 16.871 23.199 25.309 7.0312 7.0312 6.3281 17.574-0.70312 24.605-4.2188 1.4062-7.7344 3.5156-11.949 3.5156z" fill-rule="evenodd"/>
 <path d="m971.53 653.07h-0.70312c-9.8438-0.70312-16.871-9.1406-15.465-18.277 0.70312-11.949 0.70312-22.496 0.70312-34.445 0-9.8438-0.70312-19.684-0.70312-30.227v-2.1094c-1.4062-9.8438 7.0312-17.574 15.465-18.277 9.8438-0.70312 17.574 7.0312 18.277 15.465v2.1094c1.4062 10.543 1.4062 21.09 1.4062 32.336 0 11.246-1.4062 23.902-1.4062 35.852-0.70312 9.8438-8.4375 17.574-17.574 17.574z" fill-rule="evenodd"/>
 <path d="m837.96 905.45c-4.9219 0-9.1406-2.1094-12.652-5.625-5.625-7.0312-4.9219-17.574 2.1094-24.605 9.1406-7.7344 17.574-14.762 25.309-22.496 7.7344-7.7344 14.762-15.465 21.793-23.199 5.625-7.0312 16.168-7.7344 23.902-2.1094 7.0312 5.625 8.4375 16.871 2.1094 24.605-7.0312 8.4375-15.465 17.574-23.199 25.309-9.1406 8.4375-17.574 16.168-27.418 24.605-3.5156 2.8125-7.7344 3.5156-11.949 3.5156z" fill-rule="evenodd"/>
 <path d="m599.65 991.21c-11.949 0-24.605-0.70313-35.148-0.70313-9.8438-1.4062-16.871-9.1406-15.465-18.98 0.70312-9.1406 8.4375-16.168 18.277-15.465 10.543 1.4062 22.496 1.4062 33.039 1.4062 10.543 0 21.793-1.4062 32.336-1.4062 8.4375-0.70312 17.574 7.0312 18.277 15.465 1.4062 9.8438-7.0312 17.574-15.465 18.98-12.652 0-24.605 0.70313-35.852 0.70313z" fill-rule="evenodd"/>
 <path d="m360.63 904.75c-4.2188 0-7.7344-1.4062-10.543-4.2188-9.1406-7.0312-17.574-15.465-25.309-23.199-9.1406-9.1406-16.871-17.574-24.605-27.418-5.625-7.0312-4.9219-17.574 2.1094-24.605 6.3281-5.625 17.574-4.9219 23.902 2.1094 7.7344 9.1406 14.762 16.871 22.496 25.309 7.7344 7.7344 15.465 14.762 23.199 21.793 7.0312 5.625 8.4375 16.168 2.1094 23.902-3.5156 4.2188-8.4375 6.3281-13.355 6.3281z" fill-rule="evenodd"/>
 <path d="m227.07 650.96c-9.1406 0-15.465-5.625-16.871-14.762-1.4062-12.652-1.4062-23.902-1.4062-35.852 0-11.949 0.70313-23.199 0.70313-35.148 0.70312-9.8438 8.4375-16.168 18.277-15.465 9.8438 0.70312 16.871 8.4375 15.465 18.277-0.70312 11.949-0.70312 22.496-0.70312 33.039 0 11.246 0 21.793 0.70312 31.633 1.4062 9.8438-5.625 17.574-14.059 19.684 0-1.4062-1.4062-1.4062-2.1094-1.4062z" fill-rule="evenodd"/>
 <path d="m312.83 378.21c-4.2188 0-7.7344-1.4062-10.543-4.2188-7.0312-5.625-7.7344-16.168-2.1094-23.902 7.0312-9.1406 15.465-17.574 23.199-25.309 9.1406-9.1406 17.574-16.871 27.418-24.605 7.0312-5.625 17.574-4.9219 24.605 2.1094 5.625 6.3281 4.9219 17.574-2.1094 23.902-9.1406 7.7344-16.871 14.762-25.309 22.496-7.7344 7.7344-14.762 15.465-21.793 23.199-3.5156 4.2188-8.4375 6.3281-13.355 6.3281z" fill-rule="evenodd"/>
</svg>
